<svg width="344" height="355" viewBox="0 0 344 355" fill="none" xmlns="http://www.w3.org/2000/svg">
<path d="M93.4766 129.003L219.87 108.055" stroke="#9A6B51" stroke-width="20.7167" stroke-linecap="round"/>
<path d="M184.273 239.471L246.424 138.477" stroke="#9A6B51" stroke-width="20.7167" stroke-linecap="round"/>
<path d="M69.4543 86.0681C64.1348 127.331 29.3592 149.126 10.5779 154.367C10.3117 154.441 10.3385 154.837 10.6082 154.898C42.2844 161.996 63.611 204.109 69.3231 223.319C69.4041 223.591 69.8135 223.552 69.8533 223.271C73.7217 195.889 99.8703 159.319 124.47 151.687C124.721 151.609 124.706 151.244 124.453 151.172C94.4691 142.73 76.1225 121.42 70.0083 86.0515C69.9567 85.753 69.493 85.7676 69.4543 86.0681Z" fill="#9A6B51" stroke="#9A6B51" stroke-width="20.7167"/>
<path d="M277.907 10.9743C272.588 52.2369 237.812 74.0321 219.031 79.2733C218.765 79.3476 218.792 79.7437 219.061 79.8041C250.737 86.902 272.064 129.015 277.776 148.225C277.857 148.498 278.267 148.458 278.306 148.177C282.175 120.796 308.323 84.2253 332.923 76.5934C333.174 76.5156 333.159 76.1499 332.906 76.0787C302.922 67.6361 284.576 46.326 278.461 10.9578C278.41 10.6592 277.946 10.6738 277.907 10.9743Z" fill="#9A6B51" stroke="#9A6B51" stroke-width="20.7167"/>
<path d="M168.496 221.447C163.839 258.845 136.999 278.054 120.59 282.851C120.327 282.928 120.349 283.322 120.616 283.384C148.452 289.858 167.756 326.198 172.89 343.691C172.97 343.965 173.389 343.929 173.428 343.646C176.897 318.774 199.322 287.409 220.952 280.457C221.2 280.377 221.189 280.017 220.939 279.944C194.499 272.258 174.639 253.505 169.056 221.429C169.004 221.129 168.533 221.145 168.496 221.447Z" fill="#9A6B51" stroke="#9A6B51" stroke-width="20.7167"/>
</svg>
