<svg width="385" height="345" viewBox="0 0 385 345" fill="none" xmlns="http://www.w3.org/2000/svg">
<rect x="234.5" y="123.971" width="70.301" height="198.563" rx="17.4818" transform="rotate(-15.5777 234.5 123.971)" fill="#9A6B51"/>
<rect x="234.5" y="123.971" width="70.301" height="198.563" rx="17.4818" transform="rotate(-15.5777 234.5 123.971)" stroke="black" stroke-width="18.6971"/>
<rect x="234.5" y="123.971" width="70.301" height="198.563" rx="17.4818" transform="rotate(-15.5777 234.5 123.971)" stroke="black" stroke-width="18.6971"/>
<rect x="234.5" y="123.971" width="70.301" height="198.563" rx="17.4818" transform="rotate(-15.5777 234.5 123.971)" stroke="#9A6B51" stroke-width="18.6971"/>
<rect x="143.661" y="53.8485" width="70.301" height="256.805" rx="17.4818" fill="#9A6B51"/>
<rect x="143.661" y="53.8485" width="70.301" height="256.805" rx="17.4818" stroke="black" stroke-width="18.6971"/>
<rect x="143.661" y="53.8485" width="70.301" height="256.805" rx="17.4818" stroke="black" stroke-width="18.6971"/>
<rect x="143.661" y="53.8485" width="70.301" height="256.805" rx="17.4818" stroke="#9A6B51" stroke-width="18.6971"/>
<rect x="40.9189" y="53.7548" width="70.301" height="256.805" rx="17.4818" fill="#9A6B51"/>
<rect x="40.9189" y="53.7548" width="70.301" height="256.805" rx="17.4818" stroke="black" stroke-width="18.6971"/>
<rect x="40.9189" y="53.7548" width="70.301" height="256.805" rx="17.4818" stroke="black" stroke-width="18.6971"/>
<rect x="40.9189" y="53.7548" width="70.301" height="256.805" rx="17.4818" stroke="#9A6B51" stroke-width="18.6971"/>
<path d="M9.98438 336H375.656" stroke="#9A6B51" stroke-width="17.9956" stroke-linecap="round"/>
</svg>
