<svg width="210" height="354" viewBox="0 0 210 354" fill="none" xmlns="http://www.w3.org/2000/svg">
<path d="M54.0796 313.233L16.325 344.607C16.1681 344.737 15.9347 344.597 15.9758 344.398L35.7848 248.029C35.7987 247.961 35.7779 247.89 35.7311 247.838C-11.8146 195.91 15.5828 132.595 35.5046 107.004C35.6212 106.854 35.8513 106.919 35.8818 107.107C37.3466 116.111 45.1725 136.361 49.3735 146.511C49.4654 146.733 49.7965 146.637 49.7899 146.397C47.2849 55.9261 148.635 17.1684 200.074 9.03579C200.2 9.01593 200.308 9.10962 200.315 9.23658C203.934 70.945 145.373 136.914 116.775 159.881C116.567 160.048 116.827 160.438 117.066 160.319C128.094 154.815 155.497 143.475 167.189 143.824C167.31 143.827 167.396 143.932 167.387 144.053C163.348 200.416 96.128 247.302 61.2655 261.898C61.195 261.927 61.1489 261.99 61.1386 262.066L54.1554 313.097C54.1481 313.15 54.1211 313.199 54.0796 313.233Z" fill="#9A6B51" stroke="#9A6B51" stroke-width="17.2584"/>
</svg>
