<svg width="384" height="384" viewBox="0 0 384 384" fill="none" xmlns="http://www.w3.org/2000/svg">
<path d="M328.969 120L120.004 328.965C115.503 333.463 109.401 335.989 103.039 335.989C96.6761 335.989 90.574 333.463 86.0736 328.965L55.0236 297.945C52.7944 295.717 51.0261 293.071 49.8196 290.158C48.6131 287.246 47.9922 284.125 47.9922 280.973C47.9922 277.821 48.6131 274.699 49.8196 271.787C51.0261 268.875 52.7944 266.229 55.0236 264L264.004 55.0353C266.232 52.8061 268.878 51.0378 271.79 49.8313C274.703 48.6249 277.824 48.0039 280.976 48.0039C284.128 48.0039 287.25 48.6249 290.162 49.8313C293.074 51.0378 295.72 52.8061 297.949 55.0353L328.969 86.0553C331.198 88.284 332.966 90.9299 334.173 93.8421C335.379 96.7543 336 99.8756 336 103.028C336 106.18 335.379 109.301 334.173 112.213C332.966 115.126 331.198 117.772 328.969 120ZM306.347 108.692C309.471 105.568 309.471 100.503 306.347 97.3784L286.625 77.6571C283.501 74.5329 278.436 74.5329 275.312 77.6571L238.625 114.343C235.501 117.468 235.501 122.533 238.625 125.657L258.347 145.378C261.471 148.503 266.536 148.503 269.66 145.378L306.347 108.692Z" fill="#9A6B51"/>
<path d="M107.245 47.5517C103.84 73.9597 81.5838 87.9086 69.5638 91.263C69.3934 91.3105 69.4105 91.5641 69.5832 91.6027C89.8559 96.1454 103.505 123.098 107.161 135.392C107.213 135.567 107.476 135.54 107.502 135.36C110.053 117.898 129.131 96.4544 144.93 91.6181C145.091 91.5689 145.083 91.336 144.921 91.2902C125.682 85.8483 111.597 70.2483 107.601 47.5391C107.567 47.3481 107.269 47.3594 107.245 47.5517Z" fill="#9A6B51" stroke="#9A6B51" stroke-width="13.2587"/>
<path d="M312.386 185.264C308.981 211.672 286.725 225.621 274.705 228.975C274.534 229.022 274.552 229.276 274.724 229.315C294.997 233.857 308.646 260.809 312.302 273.104C312.354 273.279 312.617 273.252 312.643 273.072C315.194 255.61 334.272 234.166 350.071 229.33C350.232 229.281 350.224 229.048 350.062 229.002C330.823 223.56 316.738 207.96 312.742 185.251C312.708 185.06 312.411 185.071 312.386 185.264Z" fill="#9A6B51" stroke="#9A6B51" stroke-width="13.2587"/>
<path d="M240.87 263.884C238.487 282.37 222.907 292.134 214.493 294.482C214.374 294.516 214.386 294.693 214.507 294.72C228.698 297.9 238.252 316.767 240.811 325.373C240.848 325.495 241.032 325.477 241.05 325.351C242.836 313.127 256.191 298.116 267.25 294.731C267.363 294.697 267.357 294.534 267.243 294.502C253.776 290.692 243.917 279.772 241.119 263.876C241.096 263.742 240.887 263.75 240.87 263.884Z" fill="#9A6B51" stroke="#9A6B51" stroke-width="9.2811"/>
</svg>
